<?xml version="1.0" encoding="UTF-8"?>
<svg version="1.1" xmlns="http://www.w3.org/2000/svg" width="411" height="411">
<path d="M0 0 C3.47914941 -0.02887814 6.95826831 -0.04675687 10.4375 -0.0625 C11.92733398 -0.07506836 11.92733398 -0.07506836 13.44726562 -0.08789062 C14.39150391 -0.09111328 15.33574219 -0.09433594 16.30859375 -0.09765625 C17.62041626 -0.10551147 17.62041626 -0.10551147 18.95874023 -0.11352539 C21 0 21 0 22 1 C24.01684039 1.29912023 26.03881183 1.56389537 28.0625 1.8125 C33.83861822 2.64583864 37.99240074 4.05435338 43 7 C43 7.66 43 8.32 43 9 C44.32 9 45.64 9 47 9 C47 9.66 47 10.32 47 11 C47.66 11 48.32 11 49 11 C49 11.66 49 12.32 49 13 C50.32 13.33 51.64 13.66 53 14 C53 14.66 53 15.32 53 16 C53.99 16 54.98 16 56 16 C56 16.66 56 17.32 56 18 C56.66 18 57.32 18 58 18 C58 18.66 58 19.32 58 20 C58.66 20 59.32 20 60 20 C60 20.66 60 21.32 60 22 C60.66 22 61.32 22 62 22 C62 22.99 62 23.98 62 25 C62.99 25 63.98 25 65 25 C65 26.32 65 27.64 65 29 C65.66 29 66.32 29 67 29 C67 29.66 67 30.32 67 31 C67.66 31 68.32 31 69 31 C69 32.65 69 34.3 69 36 C69.66 36 70.32 36 71 36 C71 36.66 71 37.32 71 38 C71.66 38 72.32 38 73 38 C73 39.32 73 40.64 73 42 C73.66 42 74.32 42 75 42 C75.33 45.63 75.66 49.26 76 53 C76.66 53 77.32 53 78 53 C78 62.57 78 72.14 78 82 C77.34 82 76.68 82 76 82 C76.061875 82.969375 76.12375 83.93875 76.1875 84.9375 C76.21625881 89.61559946 74.64771207 93.67475582 73 98 C72.34 98 71.68 98 71 98 C71 99.32 71 100.64 71 102 C70.34 102 69.68 102 69 102 C69 103.32 69 104.64 69 106 C68.34 106 67.68 106 67 106 C67 106.66 67 107.32 67 108 C66.34 108 65.68 108 65 108 C64.87625 108.598125 64.7525 109.19625 64.625 109.8125 C64 112 64 112 62 115 C61.34 115 60.68 115 60 115 C60 115.66 60 116.32 60 117 C58.68 117.33 57.36 117.66 56 118 C56 118.66 56 119.32 56 120 C55.34 120 54.68 120 54 120 C54 120.66 54 121.32 54 122 C53.01 122 52.02 122 51 122 C51 122.66 51 123.32 51 124 C50.34 124 49.68 124 49 124 C49 124.66 49 125.32 49 126 C47.68 126 46.36 126 45 126 C45 126.66 45 127.32 45 128 C43.35 128.33 41.7 128.66 40 129 C40 129.66 40 130.32 40 131 C38.02 131 36.04 131 34 131 C34 131.66 34 132.32 34 133 C32.35 133 30.7 133 29 133 C29 133.66 29 134.32 29 135 C28.36191406 135.06058594 27.72382813 135.12117187 27.06640625 135.18359375 C26.24011719 135.26738281 25.41382813 135.35117188 24.5625 135.4375 C23.73878906 135.51871094 22.91507812 135.59992188 22.06640625 135.68359375 C20.01337975 135.78930815 20.01337975 135.78930815 19 137 C16.13732433 137.07325168 13.299281 137.09238205 10.4375 137.0625 C9.63119141 137.05798828 8.82488281 137.05347656 7.99414062 137.04882812 C5.99606244 137.03700518 3.99802217 137.01906914 2 137 C2 136.34 2 135.68 2 135 C-0.64 135 -3.28 135 -6 135 C-6 134.34 -6 133.68 -6 133 C-8.31 133 -10.62 133 -13 133 C-13 132.34 -13 131.68 -13 131 C-14.98 131 -16.96 131 -19 131 C-19.33 130.34 -19.66 129.68 -20 129 C-22.02463255 128.34786708 -22.02463255 128.34786708 -24 128 C-24 127.34 -24 126.68 -24 126 C-25.32 126 -26.64 126 -28 126 C-28 125.34 -28 124.68 -28 124 C-28.66 124 -29.32 124 -30 124 C-30 123.34 -30 122.68 -30 122 C-30.99 122 -31.98 122 -33 122 C-33 121.34 -33 120.68 -33 120 C-33.66 120 -34.32 120 -35 120 C-35 119.01 -35 118.02 -35 117 C-36.32 117 -37.64 117 -39 117 C-39 116.34 -39 115.68 -39 115 C-39.66 115 -40.32 115 -41 115 C-41.33 113.68 -41.66 112.36 -42 111 C-42.66 111 -43.32 111 -44 111 C-46.01782732 108.09432866 -47.35494404 105.48330216 -48 102 C-48.66 102 -49.32 102 -50 102 C-50 100.68 -50 99.36 -50 98 C-50.66 98 -51.32 98 -52 98 C-52.33 95.03 -52.66 92.06 -53 89 C-53.66 89 -54.32 89 -55 89 C-56.68490746 84.59825215 -57.23846127 80.99227825 -57.1953125 76.2890625 C-57.18886719 75.04511719 -57.18242187 73.80117187 -57.17578125 72.51953125 C-57.15902344 71.23433594 -57.14226562 69.94914062 -57.125 68.625 C-57.11597656 67.31660156 -57.10695312 66.00820312 -57.09765625 64.66015625 C-57.07415085 61.4399163 -57.04129087 58.22005293 -57 55 C-56.34 55 -55.68 55 -55 55 C-55 52.36 -55 49.72 -55 47 C-54.34 47 -53.68 47 -53 47 C-52.9175 45.845 -52.835 44.69 -52.75 43.5 C-52.18513317 38.77872502 -50.33831147 35.0893261 -48 31 C-47.34 31 -46.68 31 -46 31 C-46 30.34 -46 29.68 -46 29 C-45.34 29 -44.68 29 -44 29 C-44 27.68 -44 26.36 -44 25 C-42.625 23.25 -42.625 23.25 -41 22 C-40.34 22 -39.68 22 -39 22 C-39 21.34 -39 20.68 -39 20 C-38.34 20 -37.68 20 -37 20 C-37 19.34 -37 18.68 -37 18 C-36.34 18 -35.68 18 -35 18 C-35 17.34 -35 16.68 -35 16 C-33.68 16 -32.36 16 -31 16 C-30.67 15.01 -30.34 14.02 -30 13 C-29.34 13 -28.68 13 -28 13 C-28 12.34 -28 11.68 -28 11 C-27.34 11 -26.68 11 -26 11 C-26 10.34 -26 9.68 -26 9 C-22.5647952 6.70986347 -21.014669 6.82157027 -17 7 C-17 6.34 -17 5.68 -17 5 C-11.10261508 2.70657253 -6.33393082 1.65451286 0 2 C0 1.34 0 0.68 0 0 Z M7 16 C7 16.66 7 17.32 7 18 C3.37 18 -0.26 18 -4 18 C-4 18.66 -4 19.32 -4 20 C-5.32 20 -6.64 20 -8 20 C-8 20.66 -8 21.32 -8 22 C-10.31 22.33 -12.62 22.66 -15 23 C-15 23.66 -15 24.32 -15 25 C-16.32 25 -17.64 25 -19 25 C-19 25.66 -19 26.32 -19 27 C-19.66 27 -20.32 27 -21 27 C-21.33 28.32 -21.66 29.64 -22 31 C-23.32 31.33 -24.64 31.66 -26 32 C-26 32.66 -26 33.32 -26 34 C-26.66 34 -27.32 34 -28 34 C-28 34.66 -28 35.32 -28 36 C-28.66 36 -29.32 36 -30 36 C-32.74219867 39.34880626 -34.86153781 42.67076296 -35.3125 47 C-35.209375 47.66 -35.10625 48.32 -35 49 C-35.66 49 -36.32 49 -37 49 C-39.32590854 52.63423209 -39.16265833 55.77088331 -39 60 C-39.66 60 -40.32 60 -41 60 C-41.02684679 62.64590014 -41.04676357 65.29153096 -41.0625 67.9375 C-41.07087891 68.69224609 -41.07925781 69.44699219 -41.08789062 70.22460938 C-41.09652441 72.14994313 -41.05224333 74.07535581 -41 76 C-40.67 76.33 -40.34 76.66 -40 77 C-39.63239269 79.32817964 -39.29758419 81.6618385 -39 84 C-38.34 84 -37.68 84 -37 84 C-37 82.68 -37 81.36 -37 80 C-36.34 80 -35.68 80 -35 80 C-34.566875 79.0409375 -34.566875 79.0409375 -34.125 78.0625 C-33 76 -33 76 -31 75 C-30.53348793 72.87423218 -30.53348793 72.87423218 -30.375 70.4375 C-30.30023438 69.61121094 -30.22546875 68.78492188 -30.1484375 67.93359375 C-30.09945312 67.29550781 -30.05046875 66.65742188 -30 66 C-29.34 66 -28.68 66 -28 66 C-28 64.68 -28 63.36 -28 62 C-27.34 62 -26.68 62 -26 62 C-26 60.68 -26 59.36 -26 58 C-25.34 58 -24.68 58 -24 58 C-24 57.34 -24 56.68 -24 56 C-23.34 56 -22.68 56 -22 56 C-22 54.35 -22 52.7 -22 51 C-21.34 51 -20.68 51 -20 51 C-19.67 49.02 -19.34 47.04 -19 45 C-18.34 45 -17.68 45 -17 45 C-17 43.35 -17 41.7 -17 40 C-16.34 40 -15.68 40 -15 40 C-14.67 39.01 -14.34 38.02 -14 37 C-9.05 36.67 -4.1 36.34 1 36 C1 37.32 1 38.64 1 40 C1.66 40 2.32 40 3 40 C3.495 40.99 3.495 40.99 4 42 C4 41.34 4 40.68 4 40 C4.99 40.33 5.98 40.66 7 41 C7 39.35 7 37.7 7 36 C20.86 36 34.72 36 49 36 C49.22363777 33.65718683 49.22363777 33.65718683 46.625 31.375 C44.34281317 28.77636223 44.34281317 28.77636223 42 29 C42 28.34 42 27.68 42 27 C41.34 27 40.68 27 40 27 C40 26.34 40 25.68 40 25 C38.68 25 37.36 25 36 25 C36 24.34 36 23.68 36 23 C33.69 22.67 31.38 22.34 29 22 C29 21.34 29 20.68 29 20 C27.68 20 26.36 20 25 20 C25 19.34 25 18.68 25 18 C21.37 18 17.74 18 14 18 C14 17.34 14 16.68 14 16 C11.69 16 9.38 16 7 16 Z M6 42 C5.67 42.66 5.34 43.32 5 44 C5.66 44 6.32 44 7 44 C6.67 43.34 6.34 42.68 6 42 Z M4 44 C3.67 45.65 3.34 47.3 3 49 C3.66 49 4.32 49 5 49 C5 47.35 5 45.7 5 44 C4.67 44 4.34 44 4 44 Z M5 53 C5.66 57.29 6.32 61.58 7 66 C7.66 66 8.32 66 9 66 C9 68.31 9 70.62 9 73 C9.66 73 10.32 73 11 73 C10.98839844 73.73605469 10.97679687 74.47210938 10.96484375 75.23046875 C10.95582031 76.20628906 10.94679688 77.18210937 10.9375 78.1875 C10.92589844 79.15042969 10.91429687 80.11335938 10.90234375 81.10546875 C10.99513378 83.85576513 11.37888315 86.32479591 12 89 C12.66 89 13.32 89 14 89 C15.95031692 84.92276266 16.21581971 81.68307578 16.125 77.1875 C16.09792969 75.44533203 16.09792969 75.44533203 16.0703125 73.66796875 C16.04710937 72.78753906 16.02390625 71.90710938 16 71 C16.66 71 17.32 71 18 71 C18 66.71 18 62.42 18 58 C18.66 58 19.32 58 20 58 C20 56.35 20 54.7 20 53 C15.05 53 10.1 53 5 53 Z M38 54 C38 54.66 38 55.32 38 56 C37.34 56 36.68 56 36 56 C36 59.63 36 63.26 36 67 C35.34 67 34.68 67 34 67 C33.34 76.24 32.68 85.48 32 95 C20.12 95 8.24 95 -4 95 C-4.66 92.03 -5.32 89.06 -6 86 C-10.29 85.67 -14.58 85.34 -19 85 C-19.825 86.588125 -20.65 88.17625 -21.5 89.8125 C-21.9640625 90.70582031 -22.428125 91.59914062 -22.90625 92.51953125 C-24.20173141 95.00568026 -24.20173141 95.00568026 -24 98 C-24.66 98 -25.32 98 -26 98 C-26 99.32 -26 100.64 -26 102 C-26.66 102 -27.32 102 -28 102 C-28 102.66 -28 103.32 -28 104 C-26.68 104 -25.36 104 -24 104 C-24 104.66 -24 105.32 -24 106 C-23.34 106 -22.68 106 -22 106 C-22 106.66 -22 107.32 -22 108 C-20.79252059 109.70790088 -20.79252059 109.70790088 -19 111 C-17.68 111 -16.36 111 -15 111 C-15 111.66 -15 112.32 -15 113 C-13.68 113 -12.36 113 -11 113 C-11 113.66 -11 114.32 -11 115 C-10.01 115 -9.02 115 -8 115 C-8 115.66 -8 116.32 -8 117 C4.85392123 119.32199867 16.17292886 119.5472198 29 117 C29 116.34 29 115.68 29 115 C30.32 115 31.64 115 33 115 C33 114.34 33 113.68 33 113 C33.99 113 34.98 113 36 113 C36 112.34 36 111.68 36 111 C37.32 111 38.64 111 40 111 C40 110.34 40 109.68 40 109 C41.32 108.67 42.64 108.34 44 108 C44.33 106.68 44.66 105.36 45 104 C45.66 104 46.32 104 47 104 C47 103.34 47 102.68 47 102 C47.66 102 48.32 102 49 102 C49 101.34 49 100.68 49 100 C49.66 100 50.32 100 51 100 C51 99.34 51 98.68 51 98 C51.66 98 52.32 98 53 98 C53.33 96.35 53.66 94.7 54 93 C54.66 93 55.32 93 56 93 C56 91.68 56 90.36 56 89 C56.66 89 57.32 89 58 89 C58 88.01 58 87.02 58 86 C58.66 86 59.32 86 60 86 C60 83.03 60 80.06 60 77 C60.66 77 61.32 77 62 77 C62 71.39 62 65.78 62 60 C61.34 60 60.68 60 60 60 C60 57.69 60 55.38 60 53 C56.70835171 52.97104775 53.41673601 52.9532177 50.125 52.9375 C48.71927734 52.92493164 48.71927734 52.92493164 47.28515625 52.91210938 C46.38925781 52.90888672 45.49335938 52.90566406 44.5703125 52.90234375 C43.74289551 52.89710693 42.91547852 52.89187012 42.06298828 52.88647461 C39.93588243 52.86647862 39.93588243 52.86647862 38 54 Z M-10 62 C-10.67958603 64.39719432 -10.67958603 64.39719432 -11 67 C-10.34 67.66 -9.68 68.32 -9 69 C-9 66.69 -9 64.38 -9 62 C-9.33 62 -9.66 62 -10 62 Z " fill="#F6F9FB" transform="translate(195,120)"/>
<path d="M0 0 C0.99 0 1.98 0 3 0 C3 0.66 3 1.32 3 2 C3.66 2 4.32 2 5 2 C5 3.32 5 4.64 5 6 C5.66 6 6.32 6 7 6 C7 8.31 7 10.62 7 13 C7.66 13 8.32 13 9 13 C9 9.37 9 5.74 9 2 C10.65 1.34 12.3 0.68 14 0 C14 1.32 14 2.64 14 4 C14.66 4 15.32 4 16 4 C16.33 2.68 16.66 1.36 17 0 C17.99 0.33 18.98 0.66 20 1 C20 1.99 20 2.98 20 4 C20.99 4 21.98 4 23 4 C22.67 6.31 22.34 8.62 22 11 C21.34 11 20.68 11 20 11 C20 11.66 20 12.32 20 13 C18.68 13 17.36 13 16 13 C16 15.31 16 17.62 16 20 C10.72 20 5.44 20 0 20 C0 17.69 0 15.38 0 13 C1.32 13 2.64 13 4 13 C4 12.34 4 11.68 4 11 C1.69 11.66 -0.62 12.32 -3 13 C-4 12 -4 12 -4.0625 8.9375 C-4.041875 7.968125 -4.02125 6.99875 -4 6 C-3.34 6 -2.68 6 -2 6 C-2 4.68 -2 3.36 -2 2 C-1.34 2 -0.68 2 0 2 C0 1.34 0 0.68 0 0 Z M13 11 C13 11.66 13 12.32 13 13 C13.99 13 14.98 13 16 13 C16 12.34 16 11.68 16 11 C15.01 11 14.02 11 13 11 Z M11 13 C11 13.66 11 14.32 11 15 C11.66 15 12.32 15 13 15 C13 14.34 13 13.68 13 13 C12.34 13 11.68 13 11 13 Z " fill="#D9EDFE" transform="translate(246,271)"/>
<path d="M0 0 C2.38564077 0.57584432 4.66682784 1.22227595 7 2 C7.36972539 9.5177495 7.36972539 9.5177495 5.5625 11.875 C5.046875 12.24625 4.53125 12.6175 4 13 C3.67 13.66 3.34 14.32 3 15 C3.66 15 4.32 15 5 15 C4.67 16.65 4.34 18.3 4 20 C2.68 20 1.36 20 0 20 C-1.10844919 16.67465243 -0.84454356 14.37817425 0 11 C-1.32 11 -2.64 11 -4 11 C-4 8.03 -4 5.06 -4 2 C-2.68 2 -1.36 2 0 2 C0 1.34 0 0.68 0 0 Z " fill="#F4FCFE" transform="translate(149,271)"/>
<path d="M0 0 C0 1.32 0 2.64 0 4 C0.66 4 1.32 4 2 4 C2.33 2.68 2.66 1.36 3 0 C3.99 0.33 4.98 0.66 6 1 C6 1.99 6 2.98 6 4 C6.99 4 7.98 4 9 4 C8.67 6.31 8.34 8.62 8 11 C7.34 11 6.68 11 6 11 C6 11.66 6 12.32 6 13 C4.68 13 3.36 13 2 13 C2 12.34 2 11.68 2 11 C1.01 11 0.02 11 -1 11 C-1 11.66 -1 12.32 -1 13 C-2.32 12.67 -3.64 12.34 -5 12 C-5.08090971 10.37581255 -5.13914995 8.75048255 -5.1875 7.125 C-5.22230469 6.22007812 -5.25710937 5.31515625 -5.29296875 4.3828125 C-5.19628906 3.59648437 -5.09960938 2.81015625 -5 2 C-2 0 -2 0 0 0 Z " fill="#D3EAFF" transform="translate(260,271)"/>
<path d="M0 0 C2.90900258 0.54120978 4.83293707 0.13434732 7.6875 -0.5 C8.6875 0.5 8.6875 0.5 8.78515625 2.78515625 C8.73632812 6.64257812 8.73632812 6.64257812 8.6875 10.5 C4.3975 10.5 0.1075 10.5 -4.3125 10.5 C-4.3125 7.2 -4.3125 3.9 -4.3125 0.5 C-2.3125 -0.5 -2.3125 -0.5 0 0 Z " fill="#EEFDFE" transform="translate(162.3125,271.5)"/>
<path d="M0 0 C6.15234375 -0.09765625 6.15234375 -0.09765625 8 0 C9 1 9 1 9.09765625 3.72265625 C9.08605469 4.82480469 9.07445312 5.92695313 9.0625 7.0625 C9.05347656 8.16722656 9.04445313 9.27195312 9.03515625 10.41015625 C9.02355469 11.26480469 9.01195312 12.11945313 9 13 C6.03 13 3.06 13 0 13 C0 8.71 0 4.42 0 0 Z " fill="#7B9FB5" transform="translate(270,271)"/>
<path d="M0 0 C1.98 0 3.96 0 6 0 C6.33 1.32 6.66 2.64 7 4 C5.68 4.33 4.36 4.66 3 5 C3.33 5.33 3.66 5.66 4 6 C4.99 7.485 4.99 7.485 6 9 C4.75 11.5 4.75 11.5 3 14 C1 14 -1 14 -3 14 C-3 14.66 -3 15.32 -3 16 C-3.66 16 -4.32 16 -5 16 C-5 15.01 -5 14.02 -5 13 C-5.66 13 -6.32 13 -7 13 C-7 12.01 -7 11.02 -7 10 C-6.34 9.67 -5.68 9.34 -5 9 C-4.27306096 7.02111039 -3.60183749 5.02045442 -3 3 C-2.01 3 -1.02 3 0 3 C0 2.01 0 1.02 0 0 Z " fill="#EFF3FA" transform="translate(165,224)"/>
<path d="M0 0 C1.65 0 3.3 0 5 0 C5 0.66 5 1.32 5 2 C5.66 2 6.32 2 7 2 C7 2.66 7 3.32 7 4 C9.12438339 4.08078641 11.2496323 4.13909141 13.375 4.1875 C14.55835938 4.22230469 15.74171875 4.25710937 16.9609375 4.29296875 C17.96382813 4.19628906 18.96671875 4.09960938 20 4 C20.66 3.01 21.32 2.02 22 1 C22.66 1 23.32 1 24 1 C24 3.31 24 5.62 24 8 C20.20839703 8.05786668 16.41690689 8.09355054 12.625 8.125 C11.00464844 8.15013672 11.00464844 8.15013672 9.3515625 8.17578125 C8.3203125 8.18222656 7.2890625 8.18867188 6.2265625 8.1953125 C4.79691162 8.21102295 4.79691162 8.21102295 3.33837891 8.22705078 C1 8 1 8 -1 6 C0.65 6 2.3 6 4 6 C4 5.34 4 4.68 4 4 C2.68 3.34 1.36 2.68 0 2 C0 1.34 0 0.68 0 0 Z " fill="#D3DCEB" transform="translate(240,150)"/>
<path d="M0 0 C0.66 0.33 1.32 0.66 2 1 C2.1875 3.875 2.1875 3.875 2 7 C-1 9 -1 9 -4 9 C-4 9.99 -4 10.98 -4 12 C-5.65 11.67 -7.3 11.34 -9 11 C-9 7.37 -9 3.74 -9 0 C-5.90914327 -1.54542837 -3.32167685 -0.59315658 0 0 Z " fill="#E5F2FE" transform="translate(182,272)"/>
<path d="M0 0 C1.69752187 0.25245197 3.38471545 0.57645775 5.0625 0.9375 C5.98160156 1.13214844 6.90070313 1.32679688 7.84765625 1.52734375 C8.91306641 1.76130859 8.91306641 1.76130859 10 2 C10 4.97 10 7.94 10 11 C6.37 11 2.74 11 -1 11 C-1.09765625 3.28515625 -1.09765625 3.28515625 -1 1 C-0.67 0.67 -0.34 0.34 0 0 Z " fill="#E9F9FE" transform="translate(199,271)"/>
<path d="M0 0 C0 2.97 0 5.94 0 9 C-3.66666667 9 -7.33333333 9 -11 9 C-11 6.03 -11 3.06 -11 0 C-6.98195309 -0.84098656 -3.98196457 -1.05404945 0 0 Z " fill="#DDF0FF" transform="translate(240,273)"/>
<path d="M0 0 C1.66611905 -0.042721 3.33382885 -0.04063832 5 0 C6 1 6 1 6.0625 3.5625 C6.041875 4.366875 6.02125 5.17125 6 6 C4.68 6 3.36 6 2 6 C2 6.66 2 7.32 2 8 C3.65 8 5.3 8 7 8 C7 8.99 7 9.98 7 11 C6.01 11 5.02 11 4 11 C4 11.66 4 12.32 4 13 C2.68 13 1.36 13 0 13 C0 12.34 0 11.68 0 11 C-0.99 11 -1.98 11 -3 11 C-3.84454356 7.62182575 -4.10844919 5.32534757 -3 2 C-2.01 2 -1.02 2 0 2 C0 1.34 0 0.68 0 0 Z " fill="#EFFCFF" transform="translate(136,271)"/>
<path d="M0 0 C0.99 0.33 1.98 0.66 3 1 C3 1.99 3 2.98 3 4 C3.66 4 4.32 4 5 4 C5.33 6.31 5.66 8.62 6 11 C3.69 11 1.38 11 -1 11 C-1 11.66 -1 12.32 -1 13 C-1.99 13 -2.98 13 -4 13 C-5.25907782 8.71913541 -4.80715362 6.06609565 -3 2 C-2.01 1.34 -1.02 0.68 0 0 Z " fill="#EAF8FE" transform="translate(190,271)"/>
<path d="M0 0 C0 1.65 0 3.3 0 5 C-0.66 5 -1.32 5 -2 5 C-2 6.65 -2 8.3 -2 10 C-3.65 10 -5.3 10 -7 10 C-7 9.01 -7 8.02 -7 7 C-7.66 7 -8.32 7 -9 7 C-9 5.02 -9 3.04 -9 1 C-3.375 -1.125 -3.375 -1.125 0 0 Z " fill="#EEF9FF" transform="translate(222,272)"/>
<path d="M0 0 C0.99 0 1.98 0 3 0 C2.67 1.98 2.34 3.96 2 6 C1.01 6 0.02 6 -1 6 C-1 6.66 -1 7.32 -1 8 C-1.66 8 -2.32 8 -3 8 C-3.33 8.99 -3.66 9.98 -4 11 C-4.66 11 -5.32 11 -6 11 C-6.103125 11.5775 -6.20625 12.155 -6.3125 12.75 C-7.12534484 15.41021947 -8.06844739 16.99690841 -10 19 C-11.32 19 -12.64 19 -14 19 C-14 18.01 -14 17.02 -14 16 C-12.68 15.67 -11.36 15.34 -10 15 C-9.67 13.68 -9.34 12.36 -9 11 C-8.34 11 -7.68 11 -7 11 C-7 10.34 -7 9.68 -7 9 C-6.34 9 -5.68 9 -5 9 C-5 8.34 -5 7.68 -5 7 C-4.34 7 -3.68 7 -3 7 C-3 6.34 -3 5.68 -3 5 C-2.34 5 -1.68 5 -1 5 C-0.67 3.35 -0.34 1.7 0 0 Z " fill="#E0E7FA" transform="translate(249,213)"/>
<path d="M0 0 C0 0.66 0 1.32 0 2 C-0.66 2 -1.32 2 -2 2 C-2.433125 3.1446875 -2.433125 3.1446875 -2.875 4.3125 C-4 7 -4 7 -6 10 C-6.38499891 11.65549531 -6.72793135 13.3222433 -7 15 C-7.66 15 -8.32 15 -9 15 C-9 15.99 -9 16.98 -9 18 C-9.66 18 -10.32 18 -11 18 C-11.33 15.36 -11.66 12.72 -12 10 C-11.01 9.67 -10.02 9.34 -9 9 C-8.67 8.34 -8.34 7.68 -8 7 C-7.34 7 -6.68 7 -6 7 C-5.8453125 5.824375 -5.8453125 5.824375 -5.6875 4.625 C-4.82572663 1.33459258 -3.53157582 0 0 0 Z " fill="#E8F3FC" transform="translate(167,154)"/>
<path d="M0 0 C1.95825873 -0.02694851 3.91662226 -0.04637218 5.875 -0.0625 C6.96554688 -0.07410156 8.05609375 -0.08570313 9.1796875 -0.09765625 C12 0 12 0 14 1 C15.5195764 1.15123831 17.04472502 1.24881693 18.5703125 1.31640625 C19.91416016 1.37924805 19.91416016 1.37924805 21.28515625 1.44335938 C22.22230469 1.48267578 23.15945312 1.52199219 24.125 1.5625 C25.54232422 1.62727539 25.54232422 1.62727539 26.98828125 1.69335938 C29.32537092 1.79959072 31.6625683 1.90163176 34 2 C34 2.33 34 2.66 34 3 C22.41049818 3.83169592 11.42520871 4.56484277 0 2 C0 1.34 0 0.68 0 0 Z " fill="#E3E9F4" transform="translate(227,156)"/>
<path d="M0 0 C1.32 0.33 2.64 0.66 4 1 C4 1.66 4 2.32 4 3 C2.68 3 1.36 3 0 3 C0 3.66 0 4.32 0 5 C-2.31 5.33 -4.62 5.66 -7 6 C-7 6.66 -7 7.32 -7 8 C-8.32 8 -9.64 8 -11 8 C-11 8.66 -11 9.32 -11 10 C-11.66 10 -12.32 10 -13 10 C-13 10.66 -13 11.32 -13 12 C-13.66 12 -14.32 12 -15 12 C-14.875 10.25 -14.875 10.25 -14 8 C-10.33306034 5.06644827 -8.76869466 4 -4 4 C-4 3.34 -4 2.68 -4 2 C-2.68 2 -1.36 2 0 2 C0 1.34 0 0.68 0 0 Z " fill="#E8F3FC" transform="translate(187,137)"/>
<path d="M0 0 C0.66 0 1.32 0 2 0 C6 4.47058824 6 4.47058824 6 7 C5.01 7 4.02 7 3 7 C3.33 8.32 3.66 9.64 4 11 C1.03 10.505 1.03 10.505 -2 10 C-2 8.02 -2 6.04 -2 4 C-1.34 4 -0.68 4 0 4 C0 2.68 0 1.36 0 0 Z " fill="#D3E6FE" transform="translate(209,205)"/>
<path d="M0 0 C0.66 0 1.32 0 2 0 C2 1.65 2 3.3 2 5 C1.34 5 0.68 5 0 5 C0 9.95 0 14.9 0 20 C-0.99 19.67 -1.98 19.34 -3 19 C-3.35368021 11.87399867 -2.95671348 6.52940894 0 0 Z " fill="#E5EDF6" transform="translate(154,175)"/>
<path d="M0 0 C2.64 0 5.28 0 8 0 C8.33 1.32 8.66 2.64 9 4 C8.34 4 7.68 4 7 4 C7 4.99 7 5.98 7 7 C1.125 6.125 1.125 6.125 0 5 C-0.04063832 3.33382885 -0.042721 1.66611905 0 0 Z " fill="#D3F8FF" transform="translate(235,284)"/>
<path d="M0 0 C0.99 0 1.98 0 3 0 C2.67 2.31 2.34 4.62 2 7 C1.34 7 0.68 7 0 7 C0 7.66 0 8.32 0 9 C-1.32 9 -2.64 9 -4 9 C-4 8.34 -4 7.68 -4 7 C-4.66 7 -5.32 7 -6 7 C-6 6.34 -6 5.68 -6 5 C-5.34 5 -4.68 5 -4 5 C-4 4.34 -4 3.68 -4 3 C-3.01 2.67 -2.02 2.34 -1 2 C-0.67 1.34 -0.34 0.68 0 0 Z " fill="#AACAE0" transform="translate(266,275)"/>
<path d="M0 0 C1.98 0 3.96 0 6 0 C6 0.99 6 1.98 6 3 C5.01 3 4.02 3 3 3 C3 3.66 3 4.32 3 5 C3.66 5.33 4.32 5.66 5 6 C4.01 6.33 3.02 6.66 2 7 C2 8.98 2 10.96 2 13 C1.34 13 0.68 13 0 13 C0 8.71 0 4.42 0 0 Z " fill="#9FBDD8" transform="translate(270,271)"/>
<path d="M0 0 C0.99 0.33 1.98 0.66 3 1 C3 2.65 3 4.3 3 6 C1.68 6.33 0.36 6.66 -1 7 C-1 7.66 -1 8.32 -1 9 C-1.99 9 -2.98 9 -4 9 C-4 8.34 -4 7.68 -4 7 C-4.99 7.33 -5.98 7.66 -7 8 C-7 7.34 -7 6.68 -7 6 C-5.68 6 -4.36 6 -3 6 C-3 5.34 -3 4.68 -3 4 C-2.34 4 -1.68 4 -1 4 C-0.67 2.68 -0.34 1.36 0 0 Z " fill="#CEE5FB" transform="translate(263,271)"/>
<path d="M0 0 C1.98 0 3.96 0 6 0 C6.33 1.32 6.66 2.64 7 4 C5.02 4.33 3.04 4.66 1 5 C1 5.99 1 6.98 1 8 C-0.32 8.33 -1.64 8.66 -3 9 C-2.67 7.02 -2.34 5.04 -2 3 C-1.34 3 -0.68 3 0 3 C0 2.01 0 1.02 0 0 Z " fill="#D5D6F2" transform="translate(165,224)"/>
<path d="M0 0 C1.65 0 3.3 0 5 0 C5.33 1.98 5.66 3.96 6 6 C6.99 6 7.98 6 9 6 C9 6.66 9 7.32 9 8 C2.9453125 8.1953125 2.9453125 8.1953125 1 8 C0.34 7.34 -0.32 6.68 -1 6 C0.65 6 2.3 6 4 6 C4 5.34 4 4.68 4 4 C2.68 3.34 1.36 2.68 0 2 C0 1.34 0 0.68 0 0 Z " fill="#CDD4E2" transform="translate(240,150)"/>
<path d="M0 0 C0.33 0.99 0.66 1.98 1 3 C0.34 3 -0.32 3 -1 3 C-1 3.66 -1 4.32 -1 5 C-0.34 5 0.32 5 1 5 C0.67 5.99 0.34 6.98 0 8 C-1.65 8 -3.3 8 -5 8 C-5 5.69 -5 3.38 -5 1 C-3.35 0.67 -1.7 0.34 0 0 Z " fill="#E9FAFF" transform="translate(251,283)"/>
<path d="M0 0 C1.65 0 3.3 0 5 0 C5 0.66 5 1.32 5 2 C6.98 2 8.96 2 11 2 C11 2.66 11 3.32 11 4 C5.06 4.495 5.06 4.495 -1 5 C-1.33 4.01 -1.66 3.02 -2 2 C-1.34 2 -0.68 2 0 2 C0 1.34 0 0.68 0 0 Z " fill="#D8E7F5" transform="translate(179,201)"/>
<path d="M0 0 C0.99 0 1.98 0 3 0 C3 2.31 3 4.62 3 7 C1.02 7 -0.96 7 -3 7 C-2.67 5.35 -2.34 3.7 -2 2 C-1.34 2 -0.68 2 0 2 C0 1.34 0 0.68 0 0 Z " fill="#DCF8FE" transform="translate(259,284)"/>
<path d="M0 0 C0.66 1.32 1.32 2.64 2 4 C1.34 4 0.68 4 0 4 C0 4.66 0 5.32 0 6 C0.66 6 1.32 6 2 6 C2 7.32 2 8.64 2 10 C1.01 10 0.02 10 -1 10 C-1.33 10.66 -1.66 11.32 -2 12 C-2 11.34 -2 10.68 -2 10 C-2.66 10 -3.32 10 -4 10 C-4 9.01 -4 8.02 -4 7 C-3.34 6.67 -2.68 6.34 -2 6 C-1.27306096 4.02111039 -0.60183749 2.02045442 0 0 Z " fill="#DFE7F8" transform="translate(162,227)"/>
<path d="M0 0 C0.66 0 1.32 0 2 0 C2 0.66 2 1.32 2 2 C2.99 2.33 3.98 2.66 5 3 C5 3.66 5 4.32 5 5 C3.35 4.67 1.7 4.34 0 4 C0 4.66 0 5.32 0 6 C-1.32 6.33 -2.64 6.66 -4 7 C-4 6.01 -4 5.02 -4 4 C-3.34 4 -2.68 4 -2 4 C-2 3.34 -2 2.68 -2 2 C-1.34 2 -0.68 2 0 2 C0 1.34 0 0.68 0 0 Z " fill="#E4E8F5" transform="translate(158,138)"/>
<path d="M0 0 C1 3 1 3 0.22265625 5.04296875 C-0.16019531 5.75066406 -0.54304687 6.45835937 -0.9375 7.1875 C-1.31777344 7.90292969 -1.69804687 8.61835938 -2.08984375 9.35546875 C-2.54037109 10.16951172 -2.54037109 10.16951172 -3 11 C-3.66 11 -4.32 11 -5 11 C-6 8 -6 8 -5.3125 5.375 C-4 3 -4 3 -1.875 2.1875 C-1.25625 2.125625 -0.6375 2.06375 0 2 C0 1.34 0 0.68 0 0 Z " fill="#DAEDFD" transform="translate(174,207)"/>
<path d="M0 0 C2.6875 0.375 2.6875 0.375 5.0625 2.6875 C5.59875 3.574375 6.135 4.46125 6.6875 5.375 C6.3575 6.365 6.0275 7.355 5.6875 8.375 C5.3575 7.715 5.0275 7.055 4.6875 6.375 C4.0275 6.375 3.3675 6.375 2.6875 6.375 C2.6875 5.715 2.6875 5.055 2.6875 4.375 C2.0275 4.375 1.3675 4.375 0.6875 4.375 C0.6875 3.715 0.6875 3.055 0.6875 2.375 C-0.6325 2.045 -1.9525 1.715 -3.3125 1.375 C-2.3125 0.375 -2.3125 0.375 0 0 Z " fill="#D9E7F9" transform="translate(234.3125,142.625)"/>
<path d="M0 0 C0.98484375 0.00902344 1.9696875 0.01804687 2.984375 0.02734375 C4.10585937 0.04474609 4.10585937 0.04474609 5.25 0.0625 C4.25 2.0625 4.25 2.0625 2.515625 2.68359375 C-0.03144284 3.10956889 -2.41856169 3.15896629 -5 3.125 C-5.89203125 3.11597656 -6.7840625 3.10695313 -7.703125 3.09765625 C-8.37859375 3.08605469 -9.0540625 3.07445313 -9.75 3.0625 C-9.75 2.4025 -9.75 1.7425 -9.75 1.0625 C-6.43929162 0.06140485 -3.44915231 -0.04106134 0 0 Z " fill="#EBF1FD" transform="translate(192.75,121.9375)"/>
<path d="M0 0 C0.99 0.33 1.98 0.66 3 1 C3 2.65 3 4.3 3 6 C1.35 6.33 -0.3 6.66 -2 7 C-2.33 5.68 -2.66 4.36 -3 3 C-2.01 3 -1.02 3 0 3 C0 2.01 0 1.02 0 0 Z " fill="#87AEC7" transform="translate(276,271)"/>
<path d="M0 0 C0.66 0 1.32 0 2 0 C1.67 2.31 1.34 4.62 1 7 C0.67 6.34 0.34 5.68 0 5 C-4.29 5 -8.58 5 -13 5 C-13 4.67 -13 4.34 -13 4 C-12.22914063 3.96261719 -11.45828125 3.92523438 -10.6640625 3.88671875 C-9.15972656 3.78810547 -9.15972656 3.78810547 -7.625 3.6875 C-6.62726563 3.62949219 -5.62953125 3.57148438 -4.6015625 3.51171875 C-3.74304688 3.34285156 -2.88453125 3.17398438 -2 3 C-1.34 2.01 -0.68 1.02 0 0 Z " fill="#E6EFFB" transform="translate(260,149)"/>
<path d="M0 0 C1.65 0.33 3.3 0.66 5 1 C4.67 2.65 4.34 4.3 4 6 C2.68 6 1.36 6 0 6 C-1.125 2.25 -1.125 2.25 0 0 Z " fill="#E5F3FF" transform="translate(149,285)"/>
<path d="M0 0 C2.97 0.495 2.97 0.495 6 1 C5.67 2.32 5.34 3.64 5 5 C3.35 5 1.7 5 0 5 C0 3.35 0 1.7 0 0 Z " fill="#D7E5FE" transform="translate(198,277)"/>
<path d="M0 0 C0.99 0.33 1.98 0.66 3 1 C3 3.64 3 6.28 3 9 C2.01 8.67 1.02 8.34 0 8 C0 5.36 0 2.72 0 0 Z " fill="#E3EAF7" transform="translate(200,164)"/>
<path d="M0 0 C1.32 0 2.64 0 4 0 C4 3.3 4 6.6 4 10 C3.34 10 2.68 10 2 10 C1.34 6.7 0.68 3.4 0 0 Z " fill="#D9E2FD" transform="translate(225,194)"/>
<path d="M0 0 C0.66 0 1.32 0 2 0 C2 0.66 2 1.32 2 2 C2.66 2 3.32 2 4 2 C4.33 4.64 4.66 7.28 5 10 C4.34 10 3.68 10 3 10 C3 8.02 3 6.04 3 4 C0.03 3.505 0.03 3.505 -3 3 C-2.01 2.67 -1.02 2.34 0 2 C0 1.34 0 0.68 0 0 Z " fill="#E8F2FE" transform="translate(264,156)"/>
<path d="M0 0 C-0.33 0.99 -0.66 1.98 -1 3 C-3.64 3 -6.28 3 -9 3 C-9 2.34 -9 1.68 -9 1 C-5.64919071 -1.10976881 -3.77897651 -1.0497157 0 0 Z " fill="#EAEBFF" transform="translate(219,135)"/>
<path d="M0 0 C-0.5625 1.9375 -0.5625 1.9375 -2 4 C-5.625 4.75 -5.625 4.75 -9 5 C-9 4.34 -9 3.68 -9 3 C-7.68 3 -6.36 3 -5 3 C-5 2.34 -5 1.68 -5 1 C-2 0 -2 0 0 0 Z " fill="#E3ECF9" transform="translate(233,232)"/>
<path d="M0 0 C0.66 0 1.32 0 2 0 C2 2.97 2 5.94 2 9 C1.01 8.67 0.02 8.34 -1 8 C-1.125 2.25 -1.125 2.25 0 0 Z " fill="#D8E0FA" transform="translate(204,193)"/>
<path d="M0 0 C0.99 0 1.98 0 3 0 C2.67 2.31 2.34 4.62 2 7 C1.01 7 0.02 7 -1 7 C-2 4 -2 4 -1.0625 1.8125 C-0.5365625 0.9153125 -0.5365625 0.9153125 0 0 Z " fill="#EAECFA" transform="translate(181,185)"/>
<path d="M0 0 C1.65 0 3.3 0 5 0 C5 3 5 3 3.625 4.6875 C2 6 2 6 0 6 C0 4.02 0 2.04 0 0 Z " fill="#BFEBF8" transform="translate(196,160)"/>
<path d="M0 0 C0.66 0 1.32 0 2 0 C2 1.32 2 2.64 2 4 C1.34 4 0.68 4 0 4 C0 4.66 0 5.32 0 6 C-1.98 6.99 -1.98 6.99 -4 8 C-3.67 6.35 -3.34 4.7 -3 3 C-2.01 3 -1.02 3 0 3 C0 2.01 0 1.02 0 0 Z " fill="#D9DFEF" transform="translate(262,222)"/>
<path d="M0 0 C1.32 0 2.64 0 4 0 C3.67 1.98 3.34 3.96 3 6 C2.01 6 1.02 6 0 6 C0 4.02 0 2.04 0 0 Z " fill="#DCE6EB" transform="translate(230,170)"/>
<path d="M0 0 C1.65 0 3.3 0 5 0 C4.67 0.66 4.34 1.32 4 2 C3.34 2 2.68 2 2 2 C2 3.98 2 5.96 2 8 C1.34 8 0.68 8 0 8 C0 5.36 0 2.72 0 0 Z " fill="#9CB8CF" transform="translate(270,276)"/>
<path d="M0 0 C0.66 0 1.32 0 2 0 C3.125 1.625 3.125 1.625 4 4 C3.125 7.25 3.125 7.25 2 10 C1.67 10 1.34 10 1 10 C0.67 6.7 0.34 3.4 0 0 Z " fill="#E3E7FB" transform="translate(254,170)"/>
<path d="M0 0 C3.3 0 6.6 0 10 0 C10 0.66 10 1.32 10 2 C3.375 3.125 3.375 3.125 0 2 C0 1.34 0 0.68 0 0 Z " fill="#E3EFFF" transform="translate(185,156)"/>
<path d="M0 0 C1.32 0.33 2.64 0.66 4 1 C3.67 2.65 3.34 4.3 3 6 C2.01 6 1.02 6 0 6 C0 4.02 0 2.04 0 0 Z " fill="#88ACC0" transform="translate(272,278)"/>
<path d="M0 0 C2 1.375 2 1.375 4 3 C4 3.66 4 4.32 4 5 C3.01 5 2.02 5 1 5 C0.67 5.66 0.34 6.32 0 7 C-0.66 6.01 -1.32 5.02 -2 4 C-1.34 2.68 -0.68 1.36 0 0 Z " fill="#E5EEFC" transform="translate(211,207)"/>
<path d="M0 0 C0.66 0 1.32 0 2 0 C1.25 4.75 1.25 4.75 -1 7 C-1.99 7 -2.98 7 -4 7 C-4 6.34 -4 5.68 -4 5 C-3.34 5 -2.68 5 -2 5 C-2 4.34 -2 3.68 -2 3 C-1.34 3 -0.68 3 0 3 C0 2.01 0 1.02 0 0 Z " fill="#E6EEFF" transform="translate(151,146)"/>
<path d="M0 0 C0.33 0.99 0.66 1.98 1 3 C1.99 3 2.98 3 4 3 C4 3.66 4 4.32 4 5 C1.69 5 -0.62 5 -3 5 C-1.125 1.125 -1.125 1.125 0 0 Z " fill="#ECF0FD" transform="translate(196,133)"/>
<path d="M0 0 C1.32 0 2.64 0 4 0 C4 0.66 4 1.32 4 2 C3.01 2 2.02 2 1 2 C0.34 3.32 -0.32 4.64 -1 6 C-1.99 5.67 -2.98 5.34 -4 5 C-3.34 4.67 -2.68 4.34 -2 4 C-2 3.34 -2 2.68 -2 2 C-1.34 2 -0.68 2 0 2 C0 1.34 0 0.68 0 0 Z " fill="#E3EAFC" transform="translate(169,129)"/>
<path d="M0 0 C1.65 0 3.3 0 5 0 C4 3 4 3 1 5 C0.01 5 -0.98 5 -2 5 C-2 3 -2 3 0 1 C0 0.67 0 0.34 0 0 Z " fill="#E9F0FA" transform="translate(225,123)"/>
<path d="M0 0 C0.66 0 1.32 0 2 0 C2 2.31 2 4.62 2 7 C0.68 7.33 -0.64 7.66 -2 8 C-1.34 5.36 -0.68 2.72 0 0 Z " fill="#E5F6FD" transform="translate(225,208)"/>
<path d="M0 0 C0.66 0 1.32 0 2 0 C2 2.31 2 4.62 2 7 C1.01 7 0.02 7 -1 7 C-0.67 4.69 -0.34 2.38 0 0 Z " fill="#D7DFF8" transform="translate(262,151)"/>
<path d="M0 0 C0 0.66 0 1.32 0 2 C-2.97 2 -5.94 2 -9 2 C-9 1.34 -9 0.68 -9 0 C-5.93109813 -1.53445094 -3.29905734 -0.54984289 0 0 Z " fill="#E7F0F9" transform="translate(223,122)"/>
<path d="M0 0 C0 0.66 0 1.32 0 2 C0.66 2 1.32 2 2 2 C2 2.66 2 3.32 2 4 C-0.31 3.67 -2.62 3.34 -5 3 C-5 2.34 -5 1.68 -5 1 C-3 0 -3 0 0 0 Z " fill="#E3ECF5" transform="translate(229,139)"/>
<path d="M0 0 C0.66 0 1.32 0 2 0 C3.125 3.75 3.125 3.75 2 6 C0.68 5.67 -0.64 5.34 -2 5 C-1.34 4.67 -0.68 4.34 0 4 C0 2.68 0 1.36 0 0 Z " fill="#C0D3F9" transform="translate(257,278)"/>
<path d="M0 0 C0.66 0 1.32 0 2 0 C2.33 1.65 2.66 3.3 3 5 C1.35 5 -0.3 5 -2 5 C-2 4.01 -2 3.02 -2 2 C-1.34 2 -0.68 2 0 2 C0 1.34 0 0.68 0 0 Z " fill="#EBF7FE" transform="translate(246,271)"/>
<path d="M0 0 C0.99 0.33 1.98 0.66 3 1 C3 2.32 3 3.64 3 5 C1.68 4.67 0.36 4.34 -1 4 C-0.67 2.68 -0.34 1.36 0 0 Z " fill="#E6F8FE" transform="translate(263,271)"/>
<path d="M0 0 C2.475 0.495 2.475 0.495 5 1 C4.67 2.65 4.34 4.3 4 6 C3.34 5.67 2.68 5.34 2 5 C2 4.01 2 3.02 2 2 C1.34 2 0.68 2 0 2 C0 1.34 0 0.68 0 0 Z " fill="#DDEEFA" transform="translate(145,220)"/>
<path d="M0 0 C0.66 0 1.32 0 2 0 C2 1.98 2 3.96 2 6 C0.68 6 -0.64 6 -2 6 C-2 5.01 -2 4.02 -2 3 C-1.34 3 -0.68 3 0 3 C0 2.01 0 1.02 0 0 Z " fill="#E2E8F7" transform="translate(253,206)"/>
<path d="M0 0 C0.99 0.33 1.98 0.66 3 1 C2.67 1.99 2.34 2.98 2 4 C1.01 3.67 0.02 3.34 -1 3 C-0.67 2.01 -0.34 1.02 0 0 Z " fill="#FFFFFF" transform="translate(168,284)"/>
<path d="M0 0 C0.99 0.33 1.98 0.66 3 1 C2.67 1.99 2.34 2.98 2 4 C1.01 3.67 0.02 3.34 -1 3 C-0.67 2.01 -0.34 1.02 0 0 Z " fill="#F4F4FF" transform="translate(157,284)"/>
</svg>
